# xmcd
#
# Track frame offsets: 
#        150
#        12005
#        29425
#        43175
#        58815
#        74522
#        93435
#        107932
#        123975
#        136577
#        152947
#        166092
#        184107
#        199459
#        215457
#        233995
#
# Disc length: 3310 seconds
#
# Revision: 0
# Processed by: cddbd v1.5PL3 Copyright (c) Steve Scherf et al.
# Submitted via: ExactAudioCopy v0.95a4
#
DISCID=e50cec10
DTITLE=Various Artist - Santa Cruz Blues
DYEAR=1997
DGENRE=Blues
TTITLE0=Eric Smith - Hot Rolls
TTITLE1=The Firebirds - Your're my Only Engineer
TTITLE2=Carl 'Sonny' Leyland - Moe's Alley Boogie
TTITLE3=Dizzie Burnett and Grover Coe - Roll With my Baby
TTITLE4=Robert Lowery - Midnight Run
TTITLE5=The Broadway Band - Baby's Comin' Home
TTITLE6=Lisa Aschmann - I Get a Rush
TTITLE7=Red Beans and Rice - Nuthin' but the Blues
TTITLE8=Stan Ruffo and the Instigators - SurfNet
TTITLE9=Jim Jacob Trio - Midnight Blue
TTITLE10=Fat Catz - Cat Talk
TTITLE11=Terri Hiatt - Mystery Train
TTITLE12=The King Kats - Sweet Tree
TTITLE13=The Linkhorns - Big Slide
TTITLE14=Electric Playground - Down by the Riverside
TTITLE15=The Pink Flamingos - Monica
EXTD=
EXTT0=
EXTT1=
EXTT2=
EXTT3=
EXTT4=
EXTT5=
EXTT6=
EXTT7=
EXTT8=
EXTT9=
EXTT10=
EXTT11=
EXTT12=
EXTT13=
EXTT14=
EXTT15=
PLAYORDER=
